<svg width="47" height="47" viewBox="0 0 47 47" fill="none" xmlns="http://www.w3.org/2000/svg">
<path d="M13.4525 11.7534C13.7657 11.6822 14.1336 11.6678 14.5668 11.74C14.9669 11.8067 15.3452 11.5364 15.4119 11.1364C15.4786 10.7363 15.2083 10.3579 14.8083 10.2913C13.5094 10.0748 12.4765 10.3988 11.7153 10.9843C10.9759 11.5532 10.5368 12.3329 10.319 12.9865C10.1907 13.3713 10.3986 13.7872 10.7834 13.9155C10.8691 13.944 10.9564 13.9559 11.0417 13.9529C11.0245 14.0729 11.0156 14.1956 11.0156 14.3203C11.0156 15.7399 12.1664 16.8907 13.586 16.8907C15.0055 16.8907 16.1563 15.7399 16.1563 14.3203C16.1563 12.9008 15.0055 11.75 13.586 11.75C13.5412 11.75 13.4967 11.7512 13.4525 11.7534Z" fill="#7D8597"/>
<path d="M35.9844 14.3203C35.9844 15.7399 34.8336 16.8907 33.4141 16.8907C31.9945 16.8907 30.8438 15.7399 30.8438 14.3203C30.8438 13.1403 31.6389 12.1461 32.7226 11.8441C32.1788 11.6718 31.5894 11.6359 30.9645 11.74C30.5644 11.8067 30.1861 11.5365 30.1194 11.1364C30.0527 10.7363 30.323 10.358 30.723 10.2913C32.7743 9.9494 34.5828 10.738 35.8375 12.411C36.0526 12.6977 36.0262 13.0905 35.7933 13.3459C35.9165 13.6464 35.9844 13.9755 35.9844 14.3203Z" fill="#7D8597"/>
<path d="M33.5962 28.8876C33.8654 29.1909 33.8377 29.6551 33.5344 29.9243C31.2439 31.9571 27.216 32.9976 23.3659 33.0452C21.4212 33.0692 19.4728 32.8416 17.7493 32.3338C16.0326 31.8279 14.4902 31.0293 13.4157 29.8755C13.1393 29.5787 13.1559 29.114 13.4527 28.8376C13.7495 28.5612 14.2142 28.5777 14.4906 28.8746C15.3255 29.7712 16.5994 30.4638 18.1644 30.9249C19.7227 31.384 21.5215 31.5991 23.3477 31.5765C27.0396 31.5309 30.6493 30.521 32.5594 28.8258C32.8628 28.5566 33.3269 28.5842 33.5962 28.8876Z" fill="#7D8597"/>
<path d="M27.684 36.5107C27.9747 36.2279 27.9811 35.7629 27.6982 35.4723C27.4154 35.1816 26.9504 35.1752 26.6598 35.4581C25.6061 36.4834 24.393 36.7875 23.2458 36.7064C22.0764 36.6237 20.9853 36.1381 20.2693 35.6001C19.9451 35.3564 19.4847 35.4217 19.2411 35.746C18.9974 36.0702 19.0627 36.5306 19.387 36.7742C20.303 37.4626 21.6597 38.0667 23.1422 38.1715C24.647 38.2779 26.2898 37.8674 27.684 36.5107Z" fill="#7D8597"/>
<path fill-rule="evenodd" clip-rule="evenodd" d="M27.5563 9.551C29.6855 5.615 34.2288 3.91732 37.7587 6.09242C41.2479 8.24242 42.1441 13.2131 40.0223 17.1352C39.8138 17.5208 39.5829 17.8843 39.3328 18.2245C43.1573 20.9304 44.885 26.0824 43.6858 31.1524C42.3017 37.0046 37.4515 39.3013 32.3279 40.8417C29.6774 41.6385 26.2791 41.9069 23.067 41.8527C19.8513 41.7984 16.7488 41.4193 14.6721 40.8801C10.6259 39.8296 6.68704 38.3319 4.44905 33.9024C1.69395 28.4493 2.70854 21.4501 7.51623 18.1197C7.29516 17.81 7.0899 17.4815 6.90258 17.1352C4.78084 13.2131 5.67704 8.24242 9.16622 6.09242C12.6961 3.91732 17.2394 5.615 19.3686 9.551C19.7055 10.1738 19.9657 10.8197 20.1519 11.4741C21.2191 11.2389 22.3268 11.1151 23.4625 11.1151C24.5981 11.1151 25.7059 11.2389 26.7731 11.4741C26.9592 10.8197 27.2194 10.1738 27.5563 9.551ZM36.9882 7.34285C34.3468 5.71524 30.6779 6.86752 28.8482 10.2498C28.4548 10.9769 28.1857 11.7398 28.034 12.5062L27.8808 13.2797L27.1202 13.072C25.9549 12.7538 24.7288 12.5839 23.4625 12.5839C22.1961 12.5839 20.9701 12.7538 19.8048 13.072L19.0441 13.2797L18.8909 12.5062C18.7392 11.7398 18.4701 10.9769 18.0768 10.2498C16.2471 6.86752 12.5781 5.71524 9.93672 7.34285C7.25457 8.99556 6.35725 13.0403 8.19442 16.4364C8.47231 16.9501 8.7948 17.4138 9.15083 17.8244L9.73475 18.498L8.96185 18.9422C8.90792 18.9732 8.85417 19.0048 8.80062 19.0372C4.37151 21.7101 3.15665 28.0874 5.75998 33.24C7.694 37.068 11.0706 38.4276 15.0412 39.4585C16.9729 39.9601 19.9532 40.3312 23.0918 40.3842C26.234 40.4372 29.4614 40.1698 31.905 39.4351C36.9696 37.9125 41.071 35.8267 42.2565 30.8144C43.4043 25.9616 41.5513 21.1982 37.8754 19.0293L37.1049 18.5746L37.701 17.9075C38.0861 17.4766 38.4337 16.985 38.7305 16.4364C40.5677 13.0403 39.6703 8.99556 36.9882 7.34285Z" fill="#7D8597"/>
</svg>
