<svg width="40" height="40" viewBox="0 0 40 40" fill="none" xmlns="http://www.w3.org/2000/svg">
<path d="M30.9 15.0001L14.8 5.76679C13.9288 5.26372 12.94 5.00019 11.934 5.00295C10.928 5.00571 9.94062 5.27468 9.0722 5.78252C8.20379 6.29037 7.48525 7.019 6.98957 7.89442C6.49388 8.76984 6.23872 9.76085 6.24999 10.7668V29.3001C6.24999 30.8119 6.85053 32.2617 7.91948 33.3306C8.98844 34.3996 10.4383 35.0001 11.95 35.0001C12.9507 34.9984 13.9335 34.7341 14.8 34.2335L30.9 25.0001C31.7651 24.4994 32.4833 23.7801 32.9826 22.9142C33.4819 22.0483 33.7448 21.0663 33.7448 20.0668C33.7448 19.0673 33.4819 18.0853 32.9826 17.2194C32.4833 16.3535 31.7651 15.6341 30.9 15.1335V15.0001ZM29.2333 21.9835L13.1333 31.3501C12.7725 31.5546 12.3648 31.6621 11.95 31.6621C11.5352 31.6621 11.1275 31.5546 10.7667 31.3501C10.4068 31.1424 10.108 30.8435 9.9003 30.4837C9.69257 30.1238 9.58325 29.7156 9.58333 29.3001V10.7001C9.58325 10.2846 9.69257 9.87642 9.9003 9.51656C10.108 9.1567 10.4068 8.85788 10.7667 8.65012C11.129 8.44872 11.5355 8.33994 11.95 8.33346C12.3642 8.34196 12.7702 8.45061 13.1333 8.65012L29.2333 17.9501C29.5933 18.1578 29.8922 18.4566 30.1001 18.8164C30.3079 19.1763 30.4174 19.5845 30.4174 20.0001C30.4174 20.4157 30.3079 20.8239 30.1001 21.1838C29.8922 21.5437 29.5933 21.8425 29.2333 22.0501V21.9835Z" fill="white"/>
</svg>
