<svg width="40" height="40" viewBox="0 0 40 40" fill="none" xmlns="http://www.w3.org/2000/svg">
<path d="M31.6666 18.3334H21.6666V8.33341C21.6666 7.89139 21.491 7.46746 21.1785 7.1549C20.8659 6.84234 20.442 6.66675 20 6.66675C19.5579 6.66675 19.134 6.84234 18.8214 7.1549C18.5089 7.46746 18.3333 7.89139 18.3333 8.33341V18.3334H8.33329C7.89127 18.3334 7.46734 18.509 7.15478 18.8216C6.84222 19.1341 6.66663 19.5581 6.66663 20.0001C6.66663 20.4421 6.84222 20.866 7.15478 21.1786C7.46734 21.4912 7.89127 21.6667 8.33329 21.6667H18.3333V31.6667C18.3333 32.1088 18.5089 32.5327 18.8214 32.8453C19.134 33.1578 19.5579 33.3334 20 33.3334C20.442 33.3334 20.8659 33.1578 21.1785 32.8453C21.491 32.5327 21.6666 32.1088 21.6666 31.6667V21.6667H31.6666C32.1087 21.6667 32.5326 21.4912 32.8451 21.1786C33.1577 20.866 33.3333 20.4421 33.3333 20.0001C33.3333 19.5581 33.1577 19.1341 32.8451 18.8216C32.5326 18.509 32.1087 18.3334 31.6666 18.3334Z" fill="white"/>
</svg>
